# Blender v2.79 (sub 0) OBJ File: ''
# www.blender.org
mtllib testarena.mtl
o Circle
v 0.000000 0.000000 -1.000000
v -0.195090 0.000000 -0.980785
v -0.382683 0.000000 -0.923880
v -0.555570 0.000000 -0.831470
v -0.707107 0.000000 -0.707107
v -0.831470 0.000000 -0.555570
v -0.923880 0.000000 -0.382683
v -0.980785 0.000000 -0.195090
v -1.000000 0.000000 -0.000000
v -0.980785 0.000000 0.195090
v -0.923880 0.000000 0.382683
v -0.831470 0.000000 0.555570
v -0.707107 0.000000 0.707107
v -0.555570 0.000000 0.831470
v -0.382683 0.000000 0.923880
v -0.195090 0.000000 0.980785
v 0.000000 0.000000 1.000000
v 0.195091 0.000000 0.980785
v 0.382684 0.000000 0.923879
v 0.555571 0.000000 0.831469
v 0.707107 0.000000 0.707106
v 0.831470 0.000000 0.555570
v 0.923880 0.000000 0.382683
v 0.980785 0.000000 0.195089
v 1.000000 0.000000 -0.000001
v 0.980785 0.000000 -0.195091
v 0.923879 0.000000 -0.382684
v 0.831469 0.000000 -0.555571
v 0.707106 0.000000 -0.707108
v 0.555569 0.000000 -0.831470
v 0.382682 0.000000 -0.923880
v 0.195089 0.000000 -0.980786
v 0.000000 8.000000 -1.000000
v -0.195090 8.000000 -0.980785
v -0.382683 8.000000 -0.923880
v -0.555570 8.000000 -0.831470
v -0.707107 8.000000 -0.707107
v -0.831470 8.000000 -0.555570
v -0.923880 8.000000 -0.382683
v -0.980785 8.000000 -0.195090
v -1.000000 8.000000 -0.000000
v -0.980785 8.000000 0.195090
v -0.923880 8.000000 0.382683
v -0.831470 8.000000 0.555570
v -0.707107 8.000000 0.707107
v -0.555570 8.000000 0.831470
v -0.382683 8.000000 0.923880
v -0.195090 8.000000 0.980785
v 0.000000 8.000000 1.000000
v 0.195091 8.000000 0.980785
v 0.382684 8.000000 0.923879
v 0.555571 8.000000 0.831469
v 0.707107 8.000000 0.707106
v 0.831470 8.000000 0.555570
v 0.923880 8.000000 0.382683
v 0.980785 8.000000 0.195089
v 1.000000 8.000000 -0.000001
v 0.980785 8.000000 -0.195091
v 0.923879 8.000000 -0.382684
v 0.831469 8.000000 -0.555571
v 0.707106 8.000000 -0.707108
v 0.555569 8.000000 -0.831470
v 0.382682 8.000000 -0.923880
v 0.195089 8.000000 -0.980786
vt 0.089171 0.000109
vt 0.089171 0.999911
vt 0.057864 0.999911
vt 0.057867 0.000109
vt 0.934382 0.000091
vt 0.934446 0.999895
vt 0.903139 0.999897
vt 0.903077 0.000092
vt 0.527428 0.000104
vt 0.527461 0.999907
vt 0.496155 0.999908
vt 0.496124 0.000105
vt 0.120475 0.000109
vt 0.120477 0.999911
vt 0.558732 0.000103
vt 0.558768 0.999907
vt 0.151779 0.000109
vt 0.151784 0.999911
vt 0.590036 0.000103
vt 0.590074 0.999906
vt 0.183083 0.000109
vt 0.183090 0.999911
vt 0.621340 0.000102
vt 0.621381 0.999905
vt 0.214387 0.000109
vt 0.214397 0.999911
vt 0.652645 0.000101
vt 0.652688 0.999904
vt 0.245691 0.000108
vt 0.245703 0.999911
vt 0.683949 0.000100
vt 0.683994 0.999904
vt 0.276995 0.000108
vt 0.277009 0.999911
vt 0.715252 0.000099
vt 0.715301 0.999903
vt 0.308299 0.000108
vt 0.308316 0.999911
vt 0.746557 0.000098
vt 0.746607 0.999902
vt 0.339603 0.000107
vt 0.339622 0.999910
vt 0.777861 0.000097
vt 0.777913 0.999901
vt 0.370907 0.000107
vt 0.370929 0.999910
vt 0.965686 0.000090
vt 0.965752 0.999894
vt 0.809165 0.000096
vt 0.809220 0.999900
vt 0.402211 0.000107
vt 0.402235 0.999909
vt 0.996990 0.000089
vt 0.997059 0.999893
vt 0.840469 0.000095
vt 0.840526 0.999899
vt 0.433516 0.000106
vt 0.433542 0.999909
vt 0.026562 0.000109
vt 0.026558 0.999911
vt -0.004749 0.999911
vt -0.004742 0.000109
vt 0.871773 0.000094
vt 0.871833 0.999898
vt 0.464820 0.000105
vt 0.464848 0.999909
vn -0.7730 0.0000 -0.6344
vn 0.0980 0.0000 -0.9952
vn 0.4714 0.0000 0.8819
vn -0.8819 0.0000 -0.4714
vn 0.6344 0.0000 0.7730
vn -0.9569 0.0000 -0.2903
vn 0.7730 0.0000 0.6344
vn -0.9952 0.0000 -0.0980
vn 0.8819 0.0000 0.4714
vn -0.9952 0.0000 0.0980
vn 0.9569 0.0000 0.2903
vn -0.9569 0.0000 0.2903
vn 0.9952 0.0000 0.0980
vn -0.8819 0.0000 0.4714
vn 0.9952 0.0000 -0.0980
vn -0.7730 0.0000 0.6344
vn 0.9569 0.0000 -0.2903
vn -0.6344 0.0000 0.7730
vn 0.8819 0.0000 -0.4714
vn -0.4714 0.0000 0.8819
vn -0.0980 0.0000 -0.9952
vn 0.7730 0.0000 -0.6344
vn -0.2903 0.0000 0.9569
vn -0.2903 0.0000 -0.9569
vn 0.6344 0.0000 -0.7730
vn -0.0980 0.0000 0.9952
vn -0.4714 0.0000 -0.8819
vn 0.4714 0.0000 -0.8819
vn 0.0980 0.0000 0.9952
vn -0.6344 0.0000 -0.7730
vn 0.2903 0.0000 -0.9569
vn 0.2903 0.0000 0.9569
usemtl Material.004
s off
f 6/1/1 38/2/1 37/3/1 5/4/1
f 1/5/2 33/6/2 64/7/2 32/8/2
f 20/9/3 52/10/3 51/11/3 19/12/3
f 7/13/4 39/14/4 38/2/4 6/1/4
f 21/15/5 53/16/5 52/10/5 20/9/5
f 8/17/6 40/18/6 39/14/6 7/13/6
f 22/19/7 54/20/7 53/16/7 21/15/7
f 9/21/8 41/22/8 40/18/8 8/17/8
f 23/23/9 55/24/9 54/20/9 22/19/9
f 10/25/10 42/26/10 41/22/10 9/21/10
f 24/27/11 56/28/11 55/24/11 23/23/11
f 11/29/12 43/30/12 42/26/12 10/25/12
f 25/31/13 57/32/13 56/28/13 24/27/13
f 12/33/14 44/34/14 43/30/14 11/29/14
f 26/35/15 58/36/15 57/32/15 25/31/15
f 13/37/16 45/38/16 44/34/16 12/33/16
f 27/39/17 59/40/17 58/36/17 26/35/17
f 14/41/18 46/42/18 45/38/18 13/37/18
f 28/43/19 60/44/19 59/40/19 27/39/19
f 15/45/20 47/46/20 46/42/20 14/41/20
f 2/47/21 34/48/21 33/6/21 1/5/21
f 29/49/22 61/50/22 60/44/22 28/43/22
f 16/51/23 48/52/23 47/46/23 15/45/23
f 3/53/24 35/54/24 34/48/24 2/47/24
f 30/55/25 62/56/25 61/50/25 29/49/25
f 17/57/26 49/58/26 48/52/26 16/51/26
f 4/59/27 36/60/27 35/61/27 3/62/27
f 31/63/28 63/64/28 62/56/28 30/55/28
f 18/65/29 50/66/29 49/58/29 17/57/29
f 5/4/30 37/3/30 36/60/30 4/59/30
f 32/8/31 64/7/31 63/64/31 31/63/31
f 19/12/32 51/11/32 50/66/32 18/65/32
o Cube
v 10.000000 0.000000 -10.000000
v 10.000000 0.000000 10.000000
v -10.000000 0.000000 10.000000
v -10.000000 0.000000 -10.000000
vt 0.999900 0.000100
vt 0.999900 0.999900
vt 0.000100 0.999900
vt 0.000100 0.000100
vn 0.0000 1.0000 0.0000
usemtl Material
s off
f 66/67/33 65/68/33 68/69/33 67/70/33
o Cube.002
v 9.999999 0.000000 -10.000001
v 2.999999 8.000000 -10.000000
v 2.999999 0.000000 -10.000000
v 9.999999 8.000000 -10.000001
v 2.999999 6.000000 -10.000000
v -3.000001 8.000000 -10.000000
v -3.000001 6.000000 -10.000000
v -3.000001 0.000000 -10.000000
v -10.000001 6.000000 -9.999999
v -10.000001 0.000000 -9.999999
v -10.000001 8.000000 -9.999999
v 2.999999 0.000000 -15.000000
v 2.999999 4.000000 -15.000000
v -3.000001 4.000000 -15.000000
v -3.000001 0.000000 -15.000000
vt 0.000065 0.997648
vt 0.001691 0.001414
vt 0.355061 -0.000845
vt 0.359140 0.099838
vt 0.345996 0.995866
vt 0.644946 0.000065
vt 0.648178 0.097189
vt 0.999774 0.093561
vt 0.999935 0.996033
vt 0.631931 0.996221
vt 0.999934 0.001533
vt 0.586293 0.855216
vt 0.598796 0.255224
vt 0.404903 0.261245
vt 0.410496 0.864673
vn 0.0000 0.0000 1.0000
vn 1.0000 0.0000 -0.0000
vn 0.0000 -0.9285 0.3714
vn -1.0000 0.0000 0.0000
vn 0.0000 1.0000 0.0000
usemtl Material.002
s off
f 69/71/34 72/72/34 70/73/34 73/74/34 71/75/34
f 73/74/34 70/73/34 74/76/34 75/77/34
f 75/77/34 77/78/34 78/79/34 76/80/34
f 74/76/34 79/81/34 77/78/34 75/77/34
f 75/77/35 76/80/35 83/82/35 82/83/35
f 73/74/36 75/77/36 82/83/36 81/84/36
f 71/75/37 73/74/37 81/84/37 80/85/37
f 76/80/38 71/75/38 80/85/38 83/82/38
f 80/85/34 81/84/34 82/83/34 83/82/34
o Cube.003
v 10.000000 0.000000 -10.000000
v 10.000000 8.000000 10.000000
v 10.000000 0.000000 10.000000
v 10.000000 8.000000 -10.000000
vt 0.000063 0.000000
vt 0.999937 0.000000
vt 0.999937 0.995617
vt 0.000063 0.995617
vn -1.0000 0.0000 0.0000
usemtl Material.002
s off
f 84/86/39 86/87/39 85/88/39 87/89/39
o Cube.005
v -10.000000 0.000000 10.000000
v -10.000000 8.000000 -10.000000
v -10.000000 0.000000 -10.000000
v -10.000000 8.000000 10.000000
vt 0.000063 0.000063
vt 0.999937 0.000063
vt 0.999937 0.994699
vt 0.000063 0.994699
vn 1.0000 0.0000 0.0000
usemtl Material.002
s off
f 88/90/40 90/91/40 89/92/40 91/93/40
o Cube.004_Cube.006
v -10.000000 0.000000 10.000000
v -3.000000 8.000000 10.000000
v -3.000000 0.000000 10.000000
v -10.000000 8.000000 10.000000
v -3.000000 6.000000 10.000000
v 3.000000 8.000000 10.000000
v 3.000000 6.000000 10.000000
v 3.000000 0.000000 10.000000
v 10.000000 6.000000 10.000000
v 10.000000 0.000000 10.000000
v 10.000000 8.000000 10.000000
v -3.000000 0.000000 15.000000
v -3.000000 4.000000 15.000000
v 3.000000 4.000000 15.000000
v 3.000000 0.000000 15.000000
vt 0.000065 0.995931
vt 0.001691 0.000678
vt 0.355061 0.000453
vt 0.359140 0.096766
vt 0.345996 0.994646
vt 0.644946 0.000065
vt 0.648178 0.097189
vt 0.999774 0.097498
vt 0.999935 0.995116
vt 0.631931 0.995304
vt 0.999934 0.000365
vt 0.538098 0.570508
vt 0.568389 0.492176
vt 0.437279 0.473221
vt 0.450829 0.559878
vn 0.0000 0.0000 -1.0000
vn -1.0000 0.0000 0.0000
vn 0.0000 -0.9285 -0.3714
vn 1.0000 0.0000 0.0000
vn 0.0000 1.0000 0.0000
usemtl Material.002
s off
f 92/94/41 95/95/41 93/96/41 96/97/41 94/98/41
f 96/97/41 93/96/41 97/99/41 98/100/41
f 98/100/41 100/101/41 101/102/41 99/103/41
f 97/99/41 102/104/41 100/101/41 98/100/41
f 98/100/42 99/103/42 106/105/42 105/106/42
f 96/97/43 98/100/43 105/106/43 104/107/43
f 94/98/44 96/97/44 104/107/44 103/108/44
f 99/103/45 94/98/45 103/108/45 106/105/45
f 103/108/41 104/107/41 105/106/41 106/105/41
o Cube.006_Cube.007
v 10.000000 8.000000 -10.000000
v 10.000000 8.000000 10.000000
v -10.000000 8.000000 10.000000
v -10.000000 8.000000 -10.000000
vt 0.999900 0.999900
vt 0.000100 0.999900
vt 0.000100 0.000100
vt 0.999900 0.000100
vn 0.0000 -1.0000 0.0000
usemtl Material
s off
f 108/109/46 109/110/46 110/111/46 107/112/46
